<?xml version="1.0" encoding="UTF-8" standalone="no"?>
<!-- Created with Inkscape (http://www.inkscape.org/) -->

<svg
   xmlns:dc="http://purl.org/dc/elements/1.1/"
   xmlns:cc="http://creativecommons.org/ns#"
   xmlns:rdf="http://www.w3.org/1999/02/22-rdf-syntax-ns#"
   xmlns:svg="http://www.w3.org/2000/svg"
   xmlns="http://www.w3.org/2000/svg"
   xmlns:xlink="http://www.w3.org/1999/xlink"
   xmlns:sodipodi="http://sodipodi.sourceforge.net/DTD/sodipodi-0.dtd"
   xmlns:inkscape="http://www.inkscape.org/namespaces/inkscape"
   id="svg1616"
   sodipodi:version="0.32"
   inkscape:version="0.46+devel r21823"
   width="283.46457"
   height="283.46457"
   sodipodi:docname="logoColivre.svg"
   inkscape:export-filename="/tmp/colivre.png"
   inkscape:export-xdpi="180.02249"
   inkscape:export-ydpi="180.02249"
   version="1.0"
   inkscape:output_extension="org.inkscape.output.svg.inkscape">
  <defs
     id="defs1618">
    <inkscape:perspective
       sodipodi:type="inkscape:persp3d"
       inkscape:vp_x="0 : 141.73228 : 1"
       inkscape:vp_y="0 : 1000 : 0"
       inkscape:vp_z="283.46457 : 141.73228 : 1"
       inkscape:persp3d-origin="141.73228 : 94.48819 : 1"
       id="perspective35" />
  </defs>
  <sodipodi:namedview
     id="base"
     pagecolor="#ffffff"
     bordercolor="#666666"
     borderopacity="1.0"
     inkscape:pageopacity="0.0"
     inkscape:pageshadow="2"
     inkscape:zoom="1.2098401"
     inkscape:cx="144.21194"
     inkscape:cy="141.73228"
     inkscape:window-width="1014"
     inkscape:window-height="689"
     inkscape:window-x="0"
     inkscape:window-y="25"
     inkscape:current-layer="svg1616"
     width="8cm"
     height="8cm"
     units="cm"
     showgrid="false"
     inkscape:window-maximized="0" />
  <metadata
     id="metadata1619">
    <rdf:RDF>
      <cc:Work
         rdf:about="">
        <dc:format>image/svg+xml</dc:format>
        <dc:type
           rdf:resource="http://purl.org/dc/dcmitype/StillImage" />
        <dc:title></dc:title>
      </cc:Work>
    </rdf:RDF>
  </metadata>
  <g
     id="g1897"
     transform="matrix(0.324937,0,0,0.324937,20.56356,-9.81177)">
    <path
       transform="scale(0.980092,1.020313)"
       inkscape:export-ydpi="39.288532"
       inkscape:export-xdpi="39.288532"
       inkscape:export-filename="/home/valessio/Desktop/colivre.png"
       id="text1937"
       d="M 149.58117,846.55879 C 144.95861,848.95725 140.1399,850.76699 135.12504,851.98802 C 130.11002,853.20905 124.87703,853.81956 119.42607,853.81957 C 103.16015,853.81956 90.273927,849.28431 80.76736,840.21379 C 71.260752,831.09969 66.507458,818.75857 66.507465,803.1904 C 66.507458,787.57871 71.260752,775.23759 80.76736,766.167 C 90.273927,757.05297 103.16015,752.49591 119.42607,752.49581 C 124.87703,752.49591 130.11002,753.10643 135.12504,754.32736 C 140.1399,755.54849 144.95861,757.35823 149.58117,759.75659 L 149.58117,779.96901 C 144.915,776.78568 140.31434,774.45264 135.77916,772.96988 C 131.24383,771.48728 126.46873,770.74594 121.45385,770.74586 C 112.4705,770.74594 105.40597,773.62408 100.26024,779.38029 C 95.114437,785.13665 92.541553,793.07334 92.541586,803.1904 C 92.541553,813.26394 95.114437,821.17883 100.26024,826.93508 C 105.40597,832.69139 112.4705,835.56953 121.45385,835.56952 C 126.46873,835.56953 131.24383,834.82819 135.77916,833.3455 C 140.31434,831.86284 144.915,829.5298 149.58117,826.34637 L 149.58117,846.55879 M 215.12436,770.74586 C 207.44926,770.74594 201.49674,773.58048 197.26678,779.24947 C 193.03675,784.91861 190.92175,792.89891 190.92178,803.1904 C 190.92175,813.43837 193.03675,821.39687 197.26678,827.06591 C 201.49674,832.735 207.44926,835.56953 215.12436,835.56952 C 222.84295,835.56953 228.81727,832.735 233.04734,827.06591 C 237.27727,821.39687 239.39226,813.43837 239.39234,803.1904 C 239.39226,792.89891 237.27727,784.91861 233.04734,779.24947 C 228.81727,773.58048 222.84295,770.74594 215.12436,770.74586 M 215.12436,752.49581 C 230.82325,752.49591 243.12076,756.98756 252.01693,765.97076 C 260.91291,774.95414 265.36095,787.36067 265.36105,803.1904 C 265.36095,818.97661 260.91291,831.36134 252.01693,840.34462 C 243.12076,849.32792 230.82325,853.81956 215.12436,853.81957 C 199.46896,853.81956 187.17144,849.32792 178.23178,840.34462 C 169.33569,831.36134 164.88765,818.97661 164.88766,803.1904 C 164.88765,787.36067 169.33569,774.95414 178.23178,765.97076 C 187.17144,756.98756 199.46896,752.49591 215.12436,752.49581 M 284.33064,754.26195 L 309.5144,754.26195 L 309.5144,832.88761 L 353.73316,832.88761 L 353.73316,851.92261 L 284.33064,851.92261 L 284.33064,754.26195 M 369.62835,754.26195 L 394.81211,754.26195 L 394.81211,851.92261 L 369.62835,851.92261 L 369.62835,754.26195 M 407.96002,754.26195 L 433.2746,754.26195 L 459.1779,826.34637 L 485.01578,754.26195 L 510.33037,754.26195 L 474.15733,851.92261 L 444.13305,851.92261 L 407.96002,754.26195 M 558.99717,797.56493 C 564.27371,797.56499 568.04582,796.5838 570.31351,794.62138 C 572.62469,792.65906 573.7803,789.43206 573.78037,784.94035 C 573.7803,780.49238 572.62469,777.30898 570.31351,775.39014 C 568.04582,773.47146 564.27371,772.51208 558.99717,772.512 L 548.40037,772.512 L 548.40037,797.56493 L 558.99717,797.56493 M 548.40037,814.96462 L 548.40037,851.92261 L 523.21661,851.92261 L 523.21661,754.26195 L 561.67908,754.26195 C 574.54345,754.26204 583.96282,756.42065 589.93722,760.73777 C 595.95507,765.05507 598.96404,771.87976 598.96413,781.21184 C 598.96404,787.66593 597.39414,792.96432 594.25444,797.10705 C 591.15817,801.24988 586.47029,804.30245 580.19078,806.26478 C 583.63576,807.04977 586.71013,808.83771 589.41392,811.62859 C 592.16116,814.37595 594.93028,818.56233 597.72129,824.18776 L 611.39248,851.92261 L 584.57341,851.92261 L 572.66836,827.65462 C 570.26984,822.77053 567.82778,819.4345 565.34217,817.64653 C 562.90006,815.85863 559.62944,814.96466 555.53032,814.96462 L 548.40037,814.96462 M 626.30651,754.26195 L 694.26996,754.26195 L 694.26996,773.29694 L 651.49027,773.29694 L 651.49027,791.48158 L 691.71888,791.48158 L 691.71888,810.51658 L 651.49027,810.51658 L 651.49027,832.88761 L 695.70903,832.88761 L 695.70903,851.92261 L 626.30651,851.92261 L 626.30651,754.26195"
       style="font-size:133.96452332px;font-style:normal;font-variant:normal;font-weight:bold;font-stretch:normal;text-align:start;line-height:125%;writing-mode:lr-tb;text-anchor:start;fill:#c00000;fill-opacity:1;stroke:none;stroke-width:1px;stroke-linecap:butt;stroke-linejoin:miter;stroke-opacity:1;font-family:Bitstream Vera Sans" />
    <g
       inkscape:export-ydpi="39.288532"
       inkscape:export-xdpi="39.288532"
       inkscape:export-filename="/home/valessio/Desktop/colivre.png"
       transform="matrix(1.324147,0,0,1.324147,-127.2025,-165.0061)"
       id="g3426">
      <path
         style="fill:#c00000;fill-opacity:1;fill-rule:evenodd;stroke:none"
         d="M 436.65954,158.10401 C 470.29686,180.24101 457.20173,224.87984 430.92577,234.95509 C 393.20929,249.4171 380.21746,267.35663 393.43171,283.14156 C 379.98831,276.54271 350.53242,272.76845 329.75752,278.69994 C 320.37892,275.13447 317.44033,270.98179 316.3298,265.00946 C 319.62417,243.23305 338.65039,219.14426 392.28453,218.66432 C 444.10236,218.2107 461.99727,186.34424 436.65954,158.10401 z "
         id="path1494"
         sodipodi:nodetypes="cscccsc"
         transform="translate(23.99938,20.08381)" />
      <use
         height="1052.3622"
         width="744.09448"
         transform="matrix(-1,0,0,-1,754.333,858.9299)"
         id="use1442"
         xlink:href="#path1494"
         y="0"
         x="0" />
      <use
         height="1052.3622"
         width="744.09448"
         transform="matrix(0,-1,1,0,-52.29845,806.6314)"
         id="use1444"
         xlink:href="#path1494"
         y="0"
         x="0" />
      <use
         height="1052.3622"
         width="744.09448"
         transform="matrix(0,-1,1,0,-52.29845,806.6314)"
         id="use1446"
         xlink:href="#use1442"
         y="0"
         x="0" />
      <use
         height="1052.3622"
         width="744.09448"
         transform="matrix(0.5,-0.866025,0.866025,0.5,-183.3444,541.3689)"
         id="use1448"
         xlink:href="#path1494"
         y="0"
         x="0" />
      <use
         height="1052.3622"
         width="744.09448"
         transform="matrix(0.5,-0.866025,0.866025,0.5,-183.3444,541.3689)"
         id="use1450"
         xlink:href="#use1444"
         y="0"
         x="0" />
      <use
         height="1052.3622"
         width="744.09448"
         transform="matrix(0.5,-0.866025,0.866025,0.5,-183.3444,541.3689)"
         id="use1452"
         xlink:href="#use1442"
         y="0"
         x="0" />
      <use
         height="1052.3622"
         width="744.09448"
         transform="matrix(0.5,-0.866025,0.866025,0.5,-183.3444,541.3689)"
         id="use1454"
         xlink:href="#use1446"
         y="0"
         x="0" />
      <use
         height="1052.3622"
         width="744.09448"
         transform="matrix(0.866025,-0.5,0.5,0.866025,-164.2021,246.1206)"
         id="use1456"
         xlink:href="#path1494"
         y="0"
         x="0" />
      <use
         height="1052.3622"
         width="744.09448"
         transform="matrix(0.866025,-0.5,0.5,0.866025,-164.2021,246.1206)"
         id="use1458"
         xlink:href="#use1444"
         y="0"
         x="0" />
      <use
         height="1052.3622"
         width="744.09448"
         transform="matrix(0.866025,-0.5,0.5,0.866025,-164.2021,246.1206)"
         id="use1460"
         xlink:href="#use1442"
         y="0"
         x="0" />
      <use
         height="1052.3622"
         width="744.09448"
         transform="matrix(0.866025,-0.5,0.5,0.866025,-164.2021,246.1206)"
         id="use1462"
         xlink:href="#use1446"
         y="0"
         x="0" />
      <path
         style="fill:#c00000;fill-opacity:1;fill-rule:evenodd;stroke:none"
         d="M 353.09091,280.02156 C 281.56421,280.02156 223.49981,338.03917 223.49981,409.56577 C 223.49981,481.09235 281.56421,539.15686 353.09091,539.15686 C 424.61751,539.15687 483.65791,480.11801 482.68201,409.56577 C 482.03581,362.85122 452.61441,302.56908 380.14101,293.81587 C 348.34081,289.9751 309.72411,299.37495 283.49461,325.81262 C 295.83701,331.64674 302.98871,335.54532 309.39431,343.15809 C 331.42251,316.76888 371.41351,312.09936 405.33291,325.32943 C 433.13891,336.17504 457.72951,371.60215 457.96281,405.14245 C 458.37001,462.06912 415.46351,514.45692 351.36801,515.27264 C 291.68081,516.02055 241.67851,460.68085 241.67851,409.25903 C 241.67851,357.8372 272.87081,297.45066 354.12491,288.54183 C 386.14831,285.03074 412.76971,296.67864 436.38931,310.41428 C 416.27831,292.74016 384.81421,280.02156 353.09091,280.02156 z "
         id="path2361"
         sodipodi:nodetypes="cssssccssssscs"
         transform="translate(23.99938,20.08381)" />
      <use
         height="1052.3622"
         width="744.09448"
         transform="matrix(-1,0,0,-1,753.3865,860.1081)"
         id="use2363"
         xlink:href="#path1502"
         y="0"
         x="0" />
      <use
         height="1052.3622"
         width="744.09448"
         transform="matrix(0.5,-0.866025,0.866025,0.5,-184.0913,541.253)"
         id="use3123"
         xlink:href="#path1502"
         y="0"
         x="0" />
      <use
         height="1052.3622"
         width="744.09448"
         transform="matrix(0.5,-0.866025,0.866025,0.5,-184.0913,541.253)"
         id="use3125"
         xlink:href="#use2363"
         y="0"
         x="0" />
      <use
         height="1052.3622"
         width="744.09448"
         transform="matrix(0.866025,0.5,-0.5,0.866025,265.4942,-130.7308)"
         id="use3127"
         xlink:href="#use3123"
         y="0"
         x="0" />
      <use
         height="1052.3622"
         width="744.09448"
         transform="matrix(0.866025,0.5,-0.5,0.866025,265.4942,-130.7308)"
         id="use3129"
         xlink:href="#use3125"
         y="0"
         x="0" />
      <use
         height="1052.3622"
         width="744.09448"
         transform="matrix(0.5,0.866025,-0.866025,0.5,560.785,-111.1991)"
         id="use3131"
         xlink:href="#path1502"
         y="0"
         x="0" />
      <use
         height="1052.3622"
         width="744.09448"
         transform="matrix(0.5,0.866025,-0.866025,0.5,560.785,-111.1991)"
         id="use3133"
         xlink:href="#use2363"
         y="0"
         x="0" />
      <use
         height="1052.3622"
         width="744.09448"
         transform="matrix(0.866025,0.5,-0.5,0.866025,265.4942,-130.7308)"
         id="use3135"
         xlink:href="#use3131"
         y="0"
         x="0" />
      <use
         height="1052.3622"
         width="744.09448"
         transform="matrix(0.866025,0.5,-0.5,0.866025,265.4942,-130.7308)"
         id="use3137"
         xlink:href="#use3133"
         y="0"
         x="0" />
      <use
         height="1052.3622"
         width="744.09448"
         transform="matrix(0.866025,0.5,-0.5,0.866025,265.4942,-130.7308)"
         id="use3139"
         xlink:href="#use2363"
         y="0"
         x="0" />
      <use
         height="1052.3622"
         width="744.09448"
         transform="matrix(0.866025,0.5,-0.5,0.866025,265.4942,-130.7308)"
         id="use3141"
         xlink:href="#path1502"
         y="0"
         x="0" />
      <path
         style="fill:#f80;fill-opacity:1;fill-rule:evenodd;stroke:none"
         d="M 381.38487,190.00385 C 395.9723,201.9257 387.13581,219.12295 371.52471,222.60288 C 371.64116,230.41854 369.45358,236.032 362.15051,244.30991 C 375.0402,237.62731 381.63281,234.97666 396.54639,233.46221 C 387.54561,221.63108 406.9617,202.50785 381.38487,190.00385 z "
         id="path1502"
         sodipodi:nodetypes="ccccc" />
    </g>
  </g>
</svg>
